# xmcd
#
# Track frame offsets:
#       150
#       4841
#       29722
#       52941
#       75443
#       98973
#       110602
#       132480
#       134660
#       157497
#       185495
#       190028
#       214621
#       218881
#
# Disc length: 3196 seconds
#
# Revision: 0
# Processed by: cddbd v1.5.2PL0 Copyright (c) Steve Scherf et al.
# Submitted via: CD-DA_X-Tractor v0.24
#
DISCID=ce0c7a0e
DTITLE=Ryan Montbleau Band - Patience on Friday
DYEAR=2007
DGENRE=folk/blues
TTITLE0=How Many Times? (parts I and II)
TTITLE1=Draw the Line
TTITLE2=75 and Sunny
TTITLE3=Love and Love Lost
TTITLE4=Maybe Today
TTITLE5=Eggs
TTITLE6=Waiting
TTITLE7=How Many Times? (part III)
TTITLE8=This
TTITLE9=Grain of Sand
TTITLE10=Gone
TTITLE11=If it Comes Around
TTITLE12=How Many Times (part IV)
TTITLE13=Shine On
EXTD=
EXTT0=
EXTT1=
EXTT2=
EXTT3=
EXTT4=
EXTT5=
EXTT6=
EXTT7=
EXTT8=
EXTT9=
EXTT10=
EXTT11=
EXTT12=
EXTT13=
PLAYORDER=
